<svg xmlns="http://www.w3.org/2000/svg" width="60" height="60.012" viewBox="0 0 60 60.012">
  <path id="arch" d="M52.745,16.625c-2.671,6.549-4.282,10.832-7.256,17.186a46.843,46.843,0,0,0,7.7,6.726,31.851,31.851,0,0,1-8.565-4.9c-3.806,7.942-9.769,19.254-21.869,41C32.261,71.145,39.633,67.76,46.5,66.469a17.41,17.41,0,0,1-.451-4.074l.011-.3C46.215,56,49.385,51.312,53.139,51.63s6.673,5.519,6.522,11.612a17.212,17.212,0,0,1-.384,3.273c6.8,1.329,14.09,4.706,23.472,10.122-1.85-3.406-3.5-6.476-5.078-9.4a54.719,54.719,0,0,0-10.359-7.143,30.922,30.922,0,0,1,8.26,3.25C59.541,33.493,58.242,29.527,52.745,16.625Z" transform="translate(-22.75 -16.625)" fill="#1793d1" fill-rule="evenodd"/>
</svg>
