<svg xmlns="http://www.w3.org/2000/svg" width="60" height="74.685" viewBox="0 0 60 74.685">
  <g id="debian" transform="translate(-988 -776)">
    <path id="Path_230" data-name="Path 230" d="M51.778,57.226c-1.238.017.234.638,1.85.886.446-.348.851-.7,1.212-1.044a9.232,9.232,0,0,1-3.062.158" transform="translate(972.08 758.233)" fill="#a80030"/>
    <path id="Path_231" data-name="Path 231" d="M61.281,53.409a7.861,7.861,0,0,0,1.463-3.282,8.009,8.009,0,0,1-1.03,2.277c-2.313,1.457-.218-.865,0-1.747-2.487,3.131-.342,1.877-.432,2.752" transform="translate(969.219 760.394)" fill="#a80030"/>
    <path id="Path_232" data-name="Path 232" d="M64.9,44.955c.149-2.229-.439-1.524-.636-.674.231.12.413,1.571.636.674" transform="translate(968.048 762.468)" fill="#a80030"/>
    <path id="Path_233" data-name="Path 233" d="M45.172,1.4c.66.118,1.427.209,1.319.367.722-.158.886-.3-1.319-.367" transform="translate(973.993 775.564)" fill="#a80030"/>
    <path id="Path_234" data-name="Path 234" d="M46.877,1.932l-.467.1.435-.039.032-.058" transform="translate(973.607 775.398)" fill="#a80030"/>
    <path id="Path_235" data-name="Path 235" d="M53.189,32.509c.074,2-.585,2.972-1.18,4.691l-1.069.534c-.875,1.7.085,1.079-.542,2.431-1.366,1.215-4.146,3.8-5.036,4.038-.649-.014.44-.766.583-1.061-1.829,1.256-1.468,1.886-4.265,2.649l-.082-.182c-6.9,3.246-16.483-3.186-16.356-11.963-.074.557-.209.418-.362.643a11.051,11.051,0,0,1,6.2-10.9A10.466,10.466,0,0,1,42.715,24.9a10.371,10.371,0,0,0-8.477-4.07c-3.662.058-7.087,2.385-8.23,4.911-1.876,1.181-2.094,4.553-2.911,5.17-1.1,8.083,2.069,11.575,7.429,15.683.844.569.238.655.352,1.088a14.544,14.544,0,0,1-4.752-3.634A12.771,12.771,0,0,0,28.6,46.9c-1.679-.569-3.922-4.069-4.577-4.211,2.894,5.182,11.743,9.088,16.376,7.15a19.329,19.329,0,0,1-7.276-.846c-1.012-.521-2.388-1.6-2.142-1.8,6.323,2.362,12.855,1.789,18.327-2.6,1.392-1.084,2.912-2.928,3.352-2.954-.662,1,.113.479-.4,1.357,1.387-2.237-.6-.91,1.434-3.863l.752,1.036c-.28-1.857,2.306-4.111,2.043-7.048.593-.9.662.966.032,3.032.873-2.292.23-2.66.455-4.551a17.186,17.186,0,0,1,.724,1.982c-.569-2.215.584-3.73.869-5.017-.281-.125-.878.979-1.014-1.637.02-1.136.316-.6.43-.875a5.022,5.022,0,0,1-1.165-2.67c.258-.393.69,1.018,1.041,1.076a25.969,25.969,0,0,1-.631-3.361c-1.026-2.145-.363.286-1.2-.921-1.092-3.407.906-.791,1.041-2.339,1.656,2.4,2.6,6.116,3.033,7.656a31.371,31.371,0,0,0-1.517-5.456c.5.211-.81-3.863.654-1.165C57.683,13.123,52.556,7.748,47.84,5.227c.577.528,1.306,1.191,1.044,1.3-2.346-1.4-1.933-1.505-2.269-2.1-1.911-.778-2.036.063-3.3,0-3.6-1.91-4.3-1.707-7.61-2.9l.151.7c-2.386-.795-2.78.3-5.359,0-.157-.123.826-.444,1.636-.561-2.307.3-2.2-.455-4.456.084A19.183,19.183,0,0,1,29.411.773c-1.881.114-4.491,1.095-3.686.2-3.069,1.369-8.519,3.291-11.577,6.159l-.1-.643c-1.4,1.682-6.111,5.024-6.487,7.2l-.375.087a40.385,40.385,0,0,0-1.78,3.9c-.954,1.625-1.4.625-1.262.88A59.4,59.4,0,0,0,.536,28.189c.574.857.014,5.162.231,8.606C-.175,53.808,12.707,70.326,26.788,74.14c2.064.738,5.133.71,7.744.786-3.08-.881-3.478-.467-6.479-1.513-2.164-1.019-2.639-2.183-4.172-3.514l.607,1.072c-3.007-1.064-1.749-1.317-4.195-2.091l.648-.846c-.974-.074-2.581-1.642-3.02-2.511l-1.066.042c-1.281-1.58-1.963-2.72-1.914-3.6l-.344.614c-.39-.67-4.713-5.927-2.47-4.7a5.057,5.057,0,0,1-1.571-1.711l.457-.522c-1.079-1.388-1.986-3.168-1.917-3.761a2.439,2.439,0,0,0,1.37,1.056c-2.725-6.761-2.878-.373-4.942-6.883l.437-.035a14.455,14.455,0,0,1-.807-1.589l.19-1.894c-1.962-2.268-.549-9.645-.266-13.691.2-1.645,1.638-3.4,2.734-6.143l-.668-.115c1.277-2.227,7.29-8.944,10.075-8.6,1.349-1.695-.268-.006-.532-.433,2.963-3.067,3.9-2.167,5.895-2.718,2.157-1.28-1.851.5-.828-.488C25.482,9.4,24.4,8.182,29.26,7.7c.513.292-1.191.451-1.618.83,3.107-1.52,9.831-1.174,14.2.844,5.068,2.368,10.762,9.369,10.986,15.956l.256.069c-.129,2.618.4,5.646-.518,8.428l.625-1.317" transform="translate(987.89 775.759)" fill="#a80030"/>
    <path id="Path_236" data-name="Path 236" d="M32.294,59.764l-.174.868a16.674,16.674,0,0,0,2.5,3.165c-.747-1.459-1.3-2.061-2.324-4.033" transform="translate(978.056 757.393)" fill="#a80030"/>
    <path id="Path_237" data-name="Path 237" d="M34.725,58.922a6.882,6.882,0,0,1-.97-1.62,11.267,11.267,0,0,0,1.351,2.742l-.381-1.123" transform="translate(977.547 758.16)" fill="#a80030"/>
    <path id="Path_238" data-name="Path 238" d="M83.511,48.916l-.182.456a22.009,22.009,0,0,1-2.156,6.883,21.625,21.625,0,0,0,2.338-7.338" transform="translate(962.784 760.771)" fill="#a80030"/>
    <path id="Path_239" data-name="Path 239" d="M45.3.37A26.658,26.658,0,0,1,48.245,0C47.088.1,45.937.155,44.8.3l.5.068" transform="translate(974.109 776)" fill="#a80030"/>
    <path id="Path_240" data-name="Path 240" d="M2.665,23.219c.193,1.785-1.343,2.478.34,1.3.9-2.032-.353-.561-.34-1.3" transform="translate(987.369 768.771)" fill="#a80030"/>
    <path id="Path_241" data-name="Path 241" d="M-.026,34.043A19.382,19.382,0,0,0,.58,31.449c-1.072,1.37-.493,1.662-.606,2.594" transform="translate(988.082 766.209)" fill="#a80030"/>
  </g>
</svg>
