<svg xmlns="http://www.w3.org/2000/svg" width="95" height="80.201" viewBox="0 0 95 80.201">
  <g id="kali" transform="translate(17347 -5608)">
    <path id="kali-2" data-name="kali" d="M4.863,36.163s33.3-1.083,48.208,5.662c3.684,1.231,3.044,2.216,3.044,2.216s-.985,9.059,6.007,11.029S73.348,56.3,83,62.159a5.033,5.033,0,0,1-.247-1.92,20.2,20.2,0,0,1,2.758,3c.64,1.083,2.068.246,2.659.591s2.9,4.086,2.9,4.086v.886s2.117,2.659,4.579,2.856c-1.231.985-2.856,2.216-2.856,2.216s-2.117-2.806-7.582-5.514a4.986,4.986,0,0,1-.935-2.659s.246-.689-6.007-2.9-12.555-5.514-19.3-1.329S48.829,82.2,72.609,83.771c2.985.432,7.623,1.654,10.782,4.283,8.222,5.711,16.789,20.186,15.066,28.245-1.427-3.53-2.9-15.444-14.721-24.158C80.044,88.7,78.172,88.1,72.264,86.873s-14.475-.344-19.89-8.025,0-17.773,3.053-19.3c.738-.591,2.511-2.117,2.511-2.117s-3.693-8.764-3.685-12.308C40.509,36.505,4.862,36.7,4.862,36.7L3.68,36.554l1.182-.394Z" transform="translate(-17350.68 5571.901)"/>
    <path id="Path_1677" data-name="Path 1677" d="M92.534,102.04s-22.346,2.617-41.254,14.587c15.358-6.541,10.879-4.671,15.358-6.541a85.78,85.78,0,0,1,26.641-5.5,19.482,19.482,0,0,1-.744-2.544Z" transform="translate(-17389.125 5518.642)"/>
  </g>
</svg>
