<svg xmlns="http://www.w3.org/2000/svg" width="52.795" height="58.646" viewBox="0 0 52.795 58.646">
  <g id="mate" transform="translate(17410 -5608)">
    <path id="mate-2" data-name="mate" d="M60.431,35.969A24.5,24.5,0,0,0,37.948,50.83l2.882,1.7A21.067,21.067,0,0,1,63.781,39.615v-3.4A24.3,24.3,0,0,0,60.431,35.969Zm10.017,2.153-.017,3.733c.555.3,1.091.627,1.614.972l3.16-1.858A24.46,24.46,0,0,0,70.448,38.122ZM60.431,44.285A16.184,16.184,0,0,0,45.2,55.1l2.986,1.771a12.707,12.707,0,0,1,12.24-9.2,12.887,12.887,0,0,1,3.333.434V44.649A16.033,16.033,0,0,0,60.431,44.285ZM80.049,45.83l-2.9,1.719A21.138,21.138,0,0,1,76.993,73.5l2.9,1.719a24.4,24.4,0,0,0,.157-29.392Zm-7.24,4.288-2.934,1.719A12.752,12.752,0,0,1,69.684,69.2l2.969,1.753a16.032,16.032,0,0,0,.156-20.833ZM36.16,57.5a23.526,23.526,0,0,0-.191,2.934,24.214,24.214,0,0,0,.191,2.917l3.212-1.892c-.016-.339-.035-.681-.035-1.024s.018-.685.035-1.024ZM48.191,63.99,45.2,65.743A16.021,16.021,0,0,0,63.764,76.212V72.739a13.093,13.093,0,0,1-3.333.434A12.7,12.7,0,0,1,48.191,63.99ZM40.83,68.33l-2.882,1.7A24.5,24.5,0,0,0,60.431,84.892a24.076,24.076,0,0,0,3.316-.243V81.264A21.164,21.164,0,0,1,40.83,68.33Zm30.99,9.861c-.448.287-.919.562-1.389.816l-.017,3.732a24.47,24.47,0,0,0,4.566-2.673Z" transform="translate(-17442.098 5576.753)" fill="#87a556"/>
    <path id="mate-3" data-name="mate" d="M64.017,27.469,64,45.837l15.556-9.184Zm-35,20L29,65.837l15.556-9.184ZM64,67.764l-.017,18.351,15.556-9.184Z" transform="translate(-17439 5580.531)" fill="#87a556" fill-rule="evenodd"/>
  </g>
</svg>
