<svg xmlns="http://www.w3.org/2000/svg" width="60" height="62.268" viewBox="0 0 60 62.268">
  <path id="ubuntu_logo" d="M457.062,225.165a5.753,5.753,0,1,0-2.105-7.857A5.752,5.752,0,0,0,457.062,225.165Zm-11.776,37.207a16.739,16.739,0,0,1-7.08-1.564l-4,7.165a24.994,24.994,0,0,0,17.757,1.678,8.08,8.08,0,0,1,10.835-6.263,24.919,24.919,0,0,0,7.426-16.214l-8.2-.119a16.8,16.8,0,0,1-16.739,15.317Zm0-33.617a16.806,16.806,0,0,1,16.739,15.318l8.2-.12A24.919,24.919,0,0,0,462.8,227.74a8.08,8.08,0,0,1-10.834-6.264,24.991,24.991,0,0,0-17.756,1.679l4,7.164a16.738,16.738,0,0,1,7.08-1.564Zm-16.808,16.808a16.784,16.784,0,0,1,7.147-13.751l-4.207-7.047A25.039,25.039,0,0,0,421.081,239.3a8.08,8.08,0,0,1,0,12.533,25.037,25.037,0,0,0,10.337,14.532l4.207-7.047a16.783,16.783,0,0,1-7.147-13.751Zm28.585,20.4a5.753,5.753,0,1,0,7.858,2.105A5.751,5.751,0,0,0,457.063,265.962Zm-41.084-26.152a5.754,5.754,0,1,0,5.753,5.754,5.753,5.753,0,0,0-5.753-5.754" transform="translate(-410.225 -214.43)" fill="#f47421"/>
</svg>
